<svg xmlns="http://www.w3.org/2000/svg" version="1.1" xmlns:xlink="http://www.w3.org/1999/xlink" xmlns:svgjs="http://svgjs.dev/svgjs" viewBox="0 0 1422 800"><defs><filter id="llleaves-blur-2" x="-100%" y="-100%" width="400%" height="400%"><feGaussianBlur in="SourceGraphic" stdDeviation="2"></feGaussianBlur></filter><filter id="llleaves-blur-3" x="-100%" y="-100%" width="400%" height="400%"><feGaussianBlur in="SourceGraphic" stdDeviation="4"></feGaussianBlur></filter><filter id="llleaves-blur-4" x="-100%" y="-100%" width="400%" height="400%"><feGaussianBlur in="SourceGraphic" stdDeviation="12"></feGaussianBlur></filter></defs><g fill="hsl(105, 69%, 30%)"><path d="M24 605H74C102 605 124 627 124 655H74C46 655 24 633 24 605Z " transform="matrix(-0.25946157014631427,0.1885098650943435,-0.1885098650943435,-0.25946157014631427,211.96137120026367,779.5110591751966)" filter="url(#llleaves-blur-2)" opacity="0.49"></path><path d="M1012 24H1062C1090 24 1112 46 1112 74H1062C1034 74 1012 52 1012 24Z " transform="matrix(-0.28921877118248346,0.16031658271649787,-0.16031658271649787,-0.28921877118248346,1377.0058475489059,-107.08449105697903)" filter="url(#llleaves-blur-2)" opacity="0.51"></path><path d="M444 454H494C522 454 544 476 544 504H494C466 504 444 482 444 454Z " transform="matrix(-0.08634838178971889,-0.48970600779744167,0.48970600779744167,-0.08634838178971889,302.0869228691465,762.2756427292115)" opacity="0.76"></path><path d="M226 434H276C304 434 326 456 326 484H276C248 484 226 462 226 434Z " transform="matrix(-0.20680501730488815,0.2217712296338751,-0.2217712296338751,-0.20680501730488815,434.8711791780978,492.7146435639942)" filter="url(#llleaves-blur-2)" opacity="0.46"></path><path d="M506 133H556C584 133 606 155 606 183H556C528 183 506 161 506 133Z " transform="matrix(-0.04395977859675519,-0.5024625685787201,0.5024625685787201,-0.04395977859675519,501.0525510643581,444.3148331480557)" opacity="0.77"></path><path d="M406 42H456C484 42 506 64 506 92H456C428 92 406 70 406 42Z " transform="matrix(-0.344934473535877,-0.259926769553035,0.259926769553035,-0.344934473535877,595.8750263723066,208.63721664308773)" opacity="0.66"></path><path d="M13 364H63C91 364 113 386 113 414H63C35 414 13 392 13 364Z " transform="matrix(-0.25946157014631427,0.1885098650943435,-0.1885098650943435,-0.25946157014631427,152.67641644091742,478.0544292859726)" filter="url(#llleaves-blur-2)" opacity="0.49"></path><path d="M870 25H920C948 25 970 47 970 75H920C892 75 870 53 870 25Z " transform="matrix(-0.10653376868306694,0.2509778309921238,-0.2509778309921238,-0.10653376868306694,1030.5599587380277,-175.5729160786005)" filter="url(#llleaves-blur-3)" opacity="0.42"></path><path d="M10 492H60C88 492 110 514 110 542H60C32 542 10 520 10 492Z " transform="matrix(-0.25946157014631427,0.1885098650943435,-0.1885098650943435,-0.25946157014631427,173.02729446255447,639.8310398599839)" filter="url(#llleaves-blur-2)" opacity="0.49"></path><path d="M632 189H682C710 189 732 211 732 239H682C654 239 632 217 632 189Z " transform="matrix(-0.23311054602670847,-0.40375930949838196,0.40375930949838196,-0.23311054602670847,754.5769001575615,539.2495059276121)" opacity="0.72"></path><path d="M1316 433H1366C1394 433 1416 455 1416 483H1366C1338 483 1316 461 1316 433Z " transform="matrix(0.5867413077035792,-0.2020312341000311,0.2020312341000311,0.5867413077035792,471.9810684590966,465.2471468524032)" opacity="0.95"></path><path d="M781 120H831C859 120 881 142 881 170H831C803 170 781 148 781 120Z " transform="matrix(-0.28547048235721956,0.16481645983463297,-0.16481645983463297,-0.28547048235721956,1092.1243575148712,49.430741819216834)" filter="url(#llleaves-blur-2)" opacity="0.50"></path><path d="M1224 367H1274C1302 367 1324 389 1324 417H1274C1246 417 1224 395 1224 367Z " transform="matrix(0.13862076796878461,-0.5173397490437198,0.5173397490437198,0.13862076796878461,894.5999599826303,996.7514992379355)" opacity="0.82"></path><path d="M863 472H913C941 472 963 494 963 522H913C885 522 863 500 863 472Z " transform="matrix(-0.2401112058572748,0.20147722427637133,-0.20147722427637133,-0.2401112058572748,1232.3557114130485,432.38656354673856)" filter="url(#llleaves-blur-2)" opacity="0.48"></path><path d="M641 81H691C719 81 741 103 741 131H691C663 131 641 109 641 81Z " transform="matrix(-0.35393076369340476,-0.2387293144837457,0.2387293144837457,-0.35393076369340476,910.2608503768656,308.4786172597692)" opacity="0.66"></path><path d="M774 547H824C852 547 874 569 874 597H824C796 597 774 575 774 547Z " transform="matrix(-0.3732558609876298,0.006515205288376807,-0.006515205288376807,-0.3732558609876298,1135.2895268787584,780.1338233273018)" filter="url(#llleaves-blur-2)" opacity="0.57"></path><path d="M1191 545H1241C1269 545 1291 567 1291 595H1241C1213 595 1191 573 1191 545Z " transform="matrix(-0.05264772635282353,-0.5009096562069425,0.5009096562069425,-0.05264772635282353,1020.8173243658969,1221.638087373925)" opacity="0.77"></path><path d="M1113 323H1163C1191 323 1213 345 1213 373H1163C1135 373 1113 351 1113 323Z " transform="matrix(-0.3297388777365237,-0.2866376333587664,0.2866376333587664,-0.3297388777365237,1446.7364183987263,796.1086970485555)" opacity="0.67"></path><path d="M653 411H703C731 411 753 433 753 461H703C675 461 653 439 653 411Z " transform="matrix(-0.23311054602670847,-0.40375930949838196,0.40375930949838196,-0.23311054602670847,690.8376549154815,821.4789926450076)" opacity="0.72"></path><path d="M545 22H595C623 22 645 44 645 72H595C567 72 545 50 545 22Z " transform="matrix(-0.20064313433960299,-0.43028059014400705,0.43028059014400705,-0.20064313433960299,694.1594771952955,312.44717844964555)" opacity="0.73"></path><path d="M261 165H311C339 165 361 187 361 215H311C283 215 261 193 261 165Z " transform="matrix(-0.28124565465332385,0.1689894381538077,-0.1689894381538077,-0.28124565465332385,430.5753918464072,190.88095911829734)" filter="url(#llleaves-blur-2)" opacity="0.50"></path><path d="M879 244H929C957 244 979 266 979 294H929C901 294 879 272 879 244Z " transform="matrix(-0.2065686097931603,0.2215177136154834,-0.2215177136154834,-0.2065686097931603,1180.4905034604108,118.77700008557605)" filter="url(#llleaves-blur-2)" opacity="0.46"></path><path d="M256 706H306C334 706 356 728 356 756H306C278 756 256 734 256 706Z " transform="matrix(-0.28124565465332385,0.1689894381538077,-0.1689894381538077,-0.28124565465332385,515.5924496143505,884.8798054765147)" filter="url(#llleaves-blur-2)" opacity="0.50"></path><path d="M1217 139H1267C1295 139 1317 161 1317 189H1267C1239 189 1217 167 1217 139Z " transform="matrix(0.20480652713757547,-0.506913942812061,0.506913942812061,0.20480652713757547,924.3762434955139,772.6716950923189)" opacity="0.84"></path><path d="M1307 528H1357C1385 528 1407 550 1407 578H1357C1329 578 1307 556 1307 528Z " transform="matrix(0.5419078743285711,-0.2761158532518358,0.2761158532518358,0.5419078743285711,468.9389476878638,628.0141583590413)" opacity="0.94"></path></g><g fill="none" stroke-width="3" stroke="hsl(105, 69%, 30%)"><path d="M1002 244H1052C1080 244 1102 266 1102 294H1052C1024 294 1002 272 1002 244Z " transform="matrix(-0.2804463490226886,0.16850916687779202,-0.16850916687779202,-0.2804463490226886,1392.3585250619944,167.16842433166602)" filter="url(#llleaves-blur-2)" opacity="0.50"></path><path d="M115 438H165C193 438 215 460 215 488H165C137 488 115 466 115 438Z " transform="matrix(-0.10130523881030214,0.2507392647615771,-0.2507392647615771,-0.10130523881030214,297.80764398831,468.53234688350966)" filter="url(#llleaves-blur-3)" opacity="0.41"></path><path d="M987 346H1037C1065 346 1087 368 1087 396H1037C1009 396 987 374 987 346Z " transform="matrix(-0.2804463490226886,0.16850916687779202,-0.16850916687779202,-0.2804463490226886,1390.3397648481887,300.30158943514715)" filter="url(#llleaves-blur-2)" opacity="0.50"></path><path d="M1215 635H1265C1293 635 1315 657 1315 685H1265C1237 685 1215 663 1215 635Z " transform="matrix(0.13862076796878461,-0.5173397490437198,0.5173397490437198,0.13862076796878461,748.2004941506324,1222.9450756809078)" opacity="0.82"></path><path d="M871 736H921C949 736 971 758 971 786H921C893 786 871 764 871 736Z " transform="matrix(-0.2065686097931603,0.2215177136154834,-0.2215177136154834,-0.2065686097931603,1279.8246696808835,714.1808978127348)" filter="url(#llleaves-blur-2)" opacity="0.46"></path><path d="M1322 117H1372C1400 117 1422 139 1422 167H1372C1344 167 1322 145 1322 117Z " transform="matrix(0.5419686558817803,-0.27614682300005566,0.27614682300005566,0.5419686558817803,589.2061552641896,443.91389202086356)" opacity="0.94"></path><path d="M1217 261H1267C1295 261 1317 283 1317 311H1267C1239 311 1217 289 1217 261Z " transform="matrix(0.13862076796878461,-0.5173397490437198,0.5173397490437198,0.13862076796878461,943.408318757046,901.8239223993206)" opacity="0.82"></path><path d="M1013 724H1063C1091 724 1113 746 1113 774H1063C1035 774 1013 752 1013 724Z " transform="matrix(-0.2804463490226886,0.16850916687779202,-0.16850916687779202,-0.2804463490226886,1487.3278350025844,779.9290710269008)" filter="url(#llleaves-blur-2)" opacity="0.50"></path><path d="M516 251H566C594 251 616 273 616 301H566C538 301 516 279 516 251Z " transform="matrix(0.027030702196457944,-0.5157765233758881,0.5157765233758881,0.027030702196457944,408.3463021050597,560.4690384245303)" opacity="0.79"></path><path d="M661 523H711C739 523 761 545 761 573H711C683 573 661 551 661 523Z " transform="matrix(-0.23311054602670847,-0.40375930949838196,0.40375930949838196,-0.23311054602670847,655.4814966198765,962.8174482759857)" opacity="0.72"></path><path d="M1109 95H1159C1187 95 1209 117 1209 145H1159C1131 145 1109 123 1109 95Z " transform="matrix(-0.24568926207812294,-0.39318500951823604,0.39318500951823604,-0.24568926207812294,1396.571653606356,605.1841374810103)" opacity="0.71"></path><path d="M17 27H67C95 27 117 49 117 77H67C39 77 17 55 17 27Z " transform="matrix(-0.19684983960320288,0.22644983644604755,-0.22644983644604755,-0.19684983960320288,91.96433074860907,47.064052617481366)" filter="url(#llleaves-blur-2)" opacity="0.46"></path><path d="M385 186H435C463 186 485 208 485 236H435C407 236 385 214 385 186Z " transform="matrix(-0.2899360627237935,-0.34553234437370095,0.34553234437370095,-0.2899360627237935,488.2148626219993,422.4830790372804)" opacity="0.69"></path><path d="M295 573H345C373 573 395 595 395 623H345C317 623 295 601 295 573Z " transform="matrix(-0.3495540270483279,0.07430000210730248,-0.07430000210730248,-0.3495540270483279,510.02754059183997,781.3998074478807)" filter="url(#llleaves-blur-2)" opacity="0.55"></path><path d="M616 722H666C694 722 716 744 716 772H666C638 772 616 750 616 722Z " transform="matrix(-0.15764381384927437,-0.4578308789793652,0.4578308789793652,-0.15764381384927437,428.99111342603095,1169.6752943456652)" opacity="0.74"></path><path d="M763 435H813C841 435 863 457 863 485H813C785 485 763 463 763 435Z " transform="matrix(-0.3732558609876298,0.006515205288376807,-0.006515205288376807,-0.3732558609876298,1119.4540094155964,626.4008341548594)" filter="url(#llleaves-blur-2)" opacity="0.57"></path><path d="M1013 139H1063C1091 139 1113 161 1113 189H1063C1035 189 1013 167 1013 139Z " transform="matrix(-0.3130861083396678,0.13289716829526105,-0.13289716829526105,-0.3130861083396678,1417.60566876549,74.07643186984302)" filter="url(#llleaves-blur-2)" opacity="0.52"></path><path d="M149 42H199C227 42 249 64 249 92H199C171 92 149 70 149 42Z " transform="matrix(0.061740393559582496,0.20194372794060175,-0.20194372794060175,0.061740393559582496,200.2438914536634,22.676591771328226)" filter="url(#llleaves-blur-3)" opacity="0.32"></path></g></svg>