<svg width="20" height="22" viewBox="0 0 20 22" fill="none" xmlns="http://www.w3.org/2000/svg">
<path d="M20 3.4375V18.5625C20 19.7016 19.0406 20.625 17.8571 20.625H2.14286C0.959375 20.625 0 19.7016 0 18.5625V3.4375C0 2.2984 0.959375 1.375 2.14286 1.375H17.8571C19.0406 1.375 20 2.2984 20 3.4375ZM16.0714 4.125H11.0727C10.1213 4.125 9.64058 5.23621 10.3151 5.88547L11.7429 7.25991L3.01406 15.6615C2.80487 15.8628 2.80487 16.1893 3.01406 16.3907L4.39929 17.724C4.60853 17.9253 4.94772 17.9253 5.15692 17.724L13.8858 9.32246L15.3138 10.6971C15.9847 11.3428 17.1429 10.8894 17.1429 9.96785V5.15625C17.1429 4.5867 16.6632 4.125 16.0714 4.125Z" fill="#8D91A6"/>
</svg>