<?xml version="1.0"?>
<svg version="1.1" xmlns="http://www.w3.org/2000/svg" width="85" height="70" style=""><path fill="#136dad" d="M27.906,50.876q-1.836,0-1.836-1.701q0-0.972,0.864-2.6595t1.809-2.8485q-1.674,0.81-3.861,2.9295t-3.051,4.4415q-0.135,0.216-0.459,0.216q-0.648,0-0.648-0.729q0.27-1.485,1.215-3.402q0.297-0.621,1.755-3.618q-2.106,1.377-3.5775,2.9565t-2.727,3.1725t-1.4175,1.593q-0.351,0-0.6075-0.324t-0.2565-0.648q0-0.486,1.404-3.564l-1.62,1.701q-0.594,0.594-0.7425,0.594t-0.1485-0.1755t0.216-0.3915q0.999-0.999,1.782-1.998t2.592-3.564q0.297-0.405,0.837-0.405t0.54,0.513q0,0.189-1.431,2.6325t-1.593,3.0645q1.107-1.215,3.321-3.267q3.321-3.078,4.374-3.078q0.324,0,0.594,0.189t0.27,0.4185t-1.053,2.0385q-1.026,1.863-1.134,2.214q2.997-2.511,2.997-2.538q2.538-1.971,3.645-1.971q0.324,0,0.6075,0.2025t0.2835,0.4725q0,0.054-1.755,2.2815t-1.971,3.6585q-0.054,0.486,0.189,0.729t0.8775,0.243t1.863-0.8775t2.4975-2.3625q0.486-0.54,0.6615-0.54t0.1755,0.135q0,0.189-0.243,0.432q-1.323,1.593-2.8485,2.7135t-2.3895,1.1205z M39.85809,40.4405q0.3645,0.2565,0.3645,0.6075t-0.3375,0.6075t-0.7425,0.2565t-0.7425-0.297t-0.3375-0.675q0-0.756,1.026-0.756q0.405,0,0.7695,0.2565z M34.20159,51.497q-1.377,0-1.377-1.782q0-1.458,1.593-4.0365t2.565-2.6055q0.27,0,0.6075,0.216t0.3375,0.432q-0.135,0.189-0.324,0.4185t-0.405,0.4995t-0.594,0.7695t-0.729,0.9585q-2.025,2.619-2.025,3.6045t0.675,0.9855q0.567,0,1.539-0.621q2.268-1.404,3.591-3.078q0.486-0.621,0.6615-0.621t0.1755,0.216t-0.621,0.864t-0.9855,1.026t-0.4995,0.4995t-0.4995,0.459t-0.5535,0.4725t-0.54,0.405t-0.621,0.3915t-0.621,0.2835q-0.567,0.243-1.35,0.243z M42.57618,51.551q-0.297,0-0.54-0.081q-1.728-0.486-1.728-1.944q0-1.89,2.376-4.374t4.266-2.484q0.621,0,1.0125,0.3375t0.3915,0.918t-0.351,1.215t-1.053,0.6345t-0.702-0.432q0-0.297,0.3645-0.9045t0.3645-0.648t-0.081-0.0405q-0.756,0.081-2.0655,1.08t-1.7955,1.674l-1.053,1.539q-0.27,0.432-0.3915,1.026t-0.1215,0.891t0.3375,0.675t0.9585,0.378q1.35,0,3.348-1.5795t3.078-3.0105q0.135-0.162,0.324-0.162t0.189,0.108t-0.135,0.27q-1.485,1.971-3.5505,3.4425t-3.4425,1.4715z M58.32177,43.127l0.378-0.081q0.297,0,0.567,0.243t0.27,0.378t-1.674,2.6055t-1.674,3.4425q0,0.081,0.027,0.162q0.135,0.621,0.594,0.621q1.404,0,5.13-4.644q0.081-0.108,0.189-0.108t0.108,0.2025t-0.243,0.5265q-3.456,4.617-5.265,4.617q-0.243,0-0.459-0.081q-1.188-0.459-1.188-1.782q0-0.459,0.108-0.918l-1.674,1.62q-1.593,1.404-2.3085,1.404t-1.3635-0.459q-0.729-0.54-0.729-1.431q0-1.971,2.754-4.7115t5.049-2.7405q0.891,0,1.188,0.621q0.081,0.216,0.135,0.3645t0.081,0.1485z M50.24877,49.769q0,0.972,0.675,0.972q1.566,0,4.266-3.429l2.862-3.942q-0.216-0.378-0.702-0.378q-1.647,0-4.374,2.5515t-2.727,4.2255z M68.07336,51.092q-1.593,0-1.593-1.863q0-1.053,0.7425-2.3355t1.8225-3.0105q-3.456,1.728-6.264,5.103q-1.566,2.349-1.836,2.349q-0.783,0-0.783-0.459q0-0.243,0.324-0.864q2.619-4.671,3.969-6.831q3.213-5.157,4.536-5.589q0.054-0.027,0.108-0.027q0.351,0,0.486,0.567q-0.081,0.567-2.808,4.104q-2.835,3.591-3.213,4.698q0.999-0.729,3.483-2.457q2.673-1.863,3.537-1.863t0.864,0.675q0,0.108-0.0135,0.1485t-1.8765,2.5515t-1.863,3.699q0,0.621,0.459,0.621q1.458-0.054,4.374-3.51q0.243-0.243,0.3645-0.243t0.1215,0.162q0,0.54-2.673,2.916q-1.674,1.458-2.268,1.458z"/><path fill="#" d=""/></svg>
